<?xml version="1.0" encoding="utf-8"?>
<!-- Generator: Adobe Illustrator 21.0.0, SVG Export Plug-In . SVG Version: 6.00 Build 0)  -->
<svg version="1.1" id="Layer_1" xmlns="http://www.w3.org/2000/svg" xmlns:xlink="http://www.w3.org/1999/xlink" x="0px" y="0px"
	 viewBox="0 0 184.3 453.5" style="enable-background:new 0 0 184.3 453.5;" xml:space="preserve">
<style type="text/css">
	.st0{fill:none;stroke:#FF0000;}
	.st1{fill:#39D437;}
	.st2{enable-background:new    ;}
	.st3{fill:#002FF7;}
</style>
<rect y="4.8" class="st0" width="184.3" height="384"/>
<g id="surface0">
	<g>
		<title>PART J1</title>
	</g>
	<g>
		<title>PART J3</title>
	</g>
	<g>
		<title>PART J4</title>
	</g>
	<g>
		<title>PART J5</title>
	</g>
	<g>
		<title>PART J6</title>
	</g>
	<g>
		<title>PART J7</title>
	</g>
	<g>
		<title>PART J8</title>
	</g>
	<g>
		<title>PART R1</title>
		<rect x="96.2" y="179.5" class="st1" width="5.1" height="4.5"/>
		<rect x="96.2" y="187.5" class="st1" width="5.1" height="4.5"/>
	</g>
	<g>
		<title>PART R2</title>
		<rect x="83" y="179.5" class="st1" width="5.1" height="4.5"/>
		<rect x="83" y="187.5" class="st1" width="5.1" height="4.5"/>
	</g>
	<g>
		<title>PART U$1</title>
	</g>
	<g>
		<title>PART U$2</title>
		<rect x="97.8" y="172.6" class="st1" width="6.3" height="3.5"/>
		<rect x="97.8" y="166.1" class="st1" width="6.3" height="3.5"/>
		<rect x="97.8" y="159.5" class="st1" width="6.3" height="3.5"/>
		<rect x="80.2" y="162.7" class="st1" width="6.2" height="10.2"/>
	</g>
	<g>
		<title>PART U$3</title>
	</g>
</g>
<g class="st2">
	<path class="st3" d="M15.7,359v4.4H29c0.8,0,1.4,0.6,1.4,1.4s-0.6,1.4-1.4,1.4H15.7v4.4c0,0.8-0.6,1.4-1.4,1.4s-1.4-0.6-1.4-1.4
		V359c0-0.8,0.6-1.4,1.4-1.4S15.7,358.3,15.7,359z"/>
	<path class="st3" d="M28.2,342.6c0.6-0.5,1.5-0.3,2,0.3c0.5,0.6,0.4,1.5-0.3,2l-5.9,4.4l5.8,4.4c0.6,0.5,0.8,1.4,0.3,2
		c-0.5,0.6-1.4,0.8-2,0.3l-6.5-4.9l-6.5,4.9c-0.6,0.5-1.5,0.3-2-0.3c-0.5-0.6-0.3-1.5,0.3-2l5.9-4.4l-5.8-4.3
		c-0.6-0.5-0.8-1.4-0.3-2c0.5-0.6,1.4-0.8,2-0.3l6.5,4.9L28.2,342.6z"/>
	<path class="st3" d="M30.6,334.2c0,0.9-0.3,2-0.6,2.8c0.2,0.3,0.4,0.6,0.4,1c0,0.8-0.6,1.4-1.4,1.4H14.2c-0.8,0-1.4-0.6-1.4-1.4
		c0-0.8,0.6-1.4,1.4-1.4h3.6c-0.2-0.7-0.4-1.6-0.4-2.3c0-3.8,2.9-6.3,6.7-6.3C27.7,327.9,30.6,330.3,30.6,334.2z M20.2,334.2
		c0,0.5,0.2,1.6,0.5,2.3h6.7c0.3-0.7,0.5-1.8,0.5-2.3c0-2.3-1.7-3.4-3.8-3.4S20.2,331.9,20.2,334.2z"/>
	<path class="st3" d="M30.5,310.1v7.8c0,0.8-0.6,1.4-1.4,1.4s-1.4-0.6-1.4-1.4v-2.4h-8l0.4,2.4c0.1,0.8-0.4,1.5-1.2,1.6
		c-0.8,0.1-1.5-0.4-1.6-1.2l-0.6-4c-0.1-0.4,0.1-0.8,0.3-1.1c0.3-0.3,0.7-0.5,1.1-0.5h9.6v-2.5c0-0.8,0.6-1.4,1.4-1.4
		S30.5,309.3,30.5,310.1z"/>
	<path class="st3" d="M30.1,303.9c0.7,0.6,0.7,1.6,0.2,2.3c-0.6,0.7-1.6,0.7-2.3,0.2l-0.7-0.6c-0.7-0.6-0.7-1.6-0.2-2.3
		c0.6-0.7,1.6-0.7,2.3-0.2L30.1,303.9z"/>
	<path class="st3" d="M30.5,291.5v7.1c0,0.8-0.6,1.4-1.4,1.4c-1.4,0-4.6,0-6.1-3.2c-0.4-0.8-0.6-1.5-0.8-2.1
		c-0.6-1.8-0.7-1.8-1.5-1.8c-1,0-1.5,0.8-1.5,2.3c0,0.9,0.3,2.5,0.5,3c0.2,0.7-0.2,1.6-0.9,1.8c-0.7,0.2-1.6-0.2-1.8-0.9
		c-0.2-0.7-0.6-2.6-0.6-3.9c0-3.1,1.7-5.2,4.4-5.2c2.9,0,3.5,2,4.2,3.7c0.2,0.6,0.4,1.2,0.7,1.9c0.4,0.9,1.1,1.3,2,1.4v-5.6
		c0-0.8,0.6-1.4,1.4-1.4C29.8,290.1,30.5,290.7,30.5,291.5z"/>
</g>
</svg>
